HIERARCHY
ROOT Hips
{
	OFFSET 0.000000 103.266502 0.000000
	CHANNELS 6 Xposition Yposition Zposition Xrotation Yrotation Zrotation 
	JOINT Spine
	{
		OFFSET -0.002400 12.777504 0.315300
		CHANNELS 3 Xrotation Yrotation Zrotation
		JOINT Spine1
		{
			OFFSET -0.002067 5.816869 0.032633
			CHANNELS 3 Xrotation Yrotation Zrotation
			JOINT Spine1_split
			{
				OFFSET -0.002067 5.816869 0.032633
				CHANNELS 3 Xrotation Yrotation Zrotation
				JOINT Spine2
				{
					OFFSET -0.002067 5.816869 0.032633
					CHANNELS 3 Xrotation Yrotation Zrotation
					JOINT Neck
					{
						OFFSET -0.003700 21.199493 -0.826900
						CHANNELS 3 Xrotation Yrotation Zrotation
						JOINT Head
						{
							OFFSET 0.000000 20.442200 4.834800
							CHANNELS 3 Xrotation Yrotation Zrotation
							JOINT HeadTop_End
							{
								OFFSET 0.000000 34.668396 4.968400
								CHANNELS 3 Xrotation Yrotation Zrotation
								End Site
								{
									OFFSET 0.000000 0.000000 0.000000
								}
							}
						}
					}
					JOINT LeftShoulder
					{
						OFFSET 3.288150 8.794197 -1.372250
						CHANNELS 3 Xrotation Yrotation Zrotation
						JOINT LeftShoulder_split
						{
							OFFSET 3.288150 8.794197 -1.372250
							CHANNELS 3 Xrotation Yrotation Zrotation
							JOINT LeftArm
							{
								OFFSET 11.953299 -2.279007 -0.146200
								CHANNELS 3 Xrotation Yrotation Zrotation
								JOINT LeftForeArm
								{
									OFFSET 18.448900 0.000000 0.000000
									CHANNELS 3 Xrotation Yrotation Zrotation
									JOINT LeftHand
									{
										OFFSET 29.527798 0.000000 0.000000
										CHANNELS 3 Xrotation Yrotation Zrotation
										JOINT LeftHandThumb1
										{
											OFFSET 10.739754 -2.369614 9.225399
											CHANNELS 3 Xrotation Yrotation Zrotation
											JOINT LeftHandThumb2
											{
												OFFSET 4.926170 -2.844131 2.844125
												CHANNELS 3 Xrotation Yrotation Zrotation
												JOINT LeftHandThumb3
												{
													OFFSET 4.614891 -2.664413 2.664409
													CHANNELS 3 Xrotation Yrotation Zrotation
													JOINT LeftHandThumb4
													{
														OFFSET 4.432465 -2.559082 2.559083
														CHANNELS 3 Xrotation Yrotation Zrotation
														End Site
														{
															OFFSET 0.000000 0.000000 0.000000
														}
													}
												}
											}
										}
										JOINT LeftHandIndex1
										{
											OFFSET 26.467674 0.187653 6.405298
											CHANNELS 3 Xrotation Yrotation Zrotation
											JOINT LeftHandIndex2
											{
												OFFSET 8.792900 0.000000 0.000000
												CHANNELS 3 Xrotation Yrotation Zrotation
												JOINT LeftHandIndex3
												{
													OFFSET 10.075203 0.000000 0.000000
													CHANNELS 3 Xrotation Yrotation Zrotation
													End Site
													{
														OFFSET 0.000000 0.000000 0.000000
													}
												}
											}
										}
										JOINT LeftHandMiddle1
										{
											OFFSET 25.764404 0.000000 0.000000
											CHANNELS 3 Xrotation Yrotation Zrotation
											JOINT LeftHandMiddle2
											{
												OFFSET 9.393974 0.000000 0.000000
												CHANNELS 3 Xrotation Yrotation Zrotation
												JOINT LeftHandMiddle3
												{
													OFFSET 10.771950 0.000000 0.000000
													CHANNELS 3 Xrotation Yrotation Zrotation
													End Site
													{
														OFFSET 0.000000 0.000000 0.000000
													}
												}
											}
										}
										JOINT LeftHandRing1
										{
											OFFSET 24.660927 0.144547 -6.225808
											CHANNELS 3 Xrotation Yrotation Zrotation
											JOINT LeftHandRing2
											{
												OFFSET 9.393799 0.000000 0.000000
												CHANNELS 3 Xrotation Yrotation Zrotation
												JOINT LeftHandRing3
												{
													OFFSET 9.928497 0.000000 0.000000
													CHANNELS 3 Xrotation Yrotation Zrotation
													End Site
													{
														OFFSET 0.000000 0.000000 0.000000
													}
												}
											}
										}
										JOINT LeftHandPinky1
										{
											OFFSET 23.655350 0.125290 -12.815412
											CHANNELS 3 Xrotation Yrotation Zrotation
											JOINT LeftHandPinky2
											{
												OFFSET 8.425102 0.000000 0.000000
												CHANNELS 3 Xrotation Yrotation Zrotation
												JOINT LeftHandPinky3
												{
													OFFSET 8.147003 0.000000 0.000000
													CHANNELS 3 Xrotation Yrotation Zrotation
													End Site
													{
														OFFSET 0.000000 0.000000 0.000000
													}
												}
											}
										}
									}
								}
							}
						}
					}
					JOINT RightShoulder
					{
						OFFSET -3.249400 8.794197 -1.372250
						CHANNELS 3 Xrotation Yrotation Zrotation
						JOINT RightShoulder_split
						{
							OFFSET -3.249400 8.794197 -1.372250
							CHANNELS 3 Xrotation Yrotation Zrotation
							JOINT RightArm
							{
								OFFSET -11.953299 -2.279007 -0.146200
								CHANNELS 3 Xrotation Yrotation Zrotation
								JOINT RightForeArm
								{
									OFFSET -18.448900 0.000000 0.000000
									CHANNELS 3 Xrotation Yrotation Zrotation
									JOINT RightHand
									{
										OFFSET -29.527802 0.000000 0.000000
										CHANNELS 3 Xrotation Yrotation Zrotation
										JOINT RightHandThumb1
										{
											OFFSET -10.739754 -2.369614 9.225399
											CHANNELS 3 Xrotation Yrotation Zrotation
											JOINT RightHandThumb2
											{
												OFFSET -4.926170 -2.844131 2.844125
												CHANNELS 3 Xrotation Yrotation Zrotation
												JOINT RightHandThumb3
												{
													OFFSET -4.614891 -2.664413 2.664409
													CHANNELS 3 Xrotation Yrotation Zrotation
													JOINT RightHandThumb4
													{
														OFFSET -4.432465 -2.559082 2.559083
														CHANNELS 3 Xrotation Yrotation Zrotation
														End Site
														{
															OFFSET 0.000000 0.000000 0.000000
														}
													}
												}
											}
										}
										JOINT RightHandIndex1
										{
											OFFSET -26.467674 0.187653 6.405298
											CHANNELS 3 Xrotation Yrotation Zrotation
											JOINT RightHandIndex2
											{
												OFFSET -8.792900 0.000000 0.000000
												CHANNELS 3 Xrotation Yrotation Zrotation
												JOINT RightHandIndex3
												{
													OFFSET -10.075203 0.000000 0.000000
													CHANNELS 3 Xrotation Yrotation Zrotation
													End Site
													{
														OFFSET 0.000000 0.000000 0.000000
													}
												}
											}
										}
										JOINT RightHandMiddle1
										{
											OFFSET -25.764404 0.000000 0.000000
											CHANNELS 3 Xrotation Yrotation Zrotation
											JOINT RightHandMiddle2
											{
												OFFSET -9.393974 0.000000 0.000000
												CHANNELS 3 Xrotation Yrotation Zrotation
												JOINT RightHandMiddle3
												{
													OFFSET -10.771950 0.000000 0.000000
													CHANNELS 3 Xrotation Yrotation Zrotation
													End Site
													{
														OFFSET 0.000000 0.000000 0.000000
													}
												}
											}
										}
										JOINT RightHandRing1
										{
											OFFSET -24.660927 0.144547 -6.225808
											CHANNELS 3 Xrotation Yrotation Zrotation
											JOINT RightHandRing2
											{
												OFFSET -9.393799 0.000000 0.000000
												CHANNELS 3 Xrotation Yrotation Zrotation
												JOINT RightHandRing3
												{
													OFFSET -9.928497 0.000000 0.000000
													CHANNELS 3 Xrotation Yrotation Zrotation
													End Site
													{
														OFFSET 0.000000 0.000000 0.000000
													}
												}
											}
										}
										JOINT RightHandPinky1
										{
											OFFSET -23.655350 0.125290 -12.815412
											CHANNELS 3 Xrotation Yrotation Zrotation
											JOINT RightHandPinky2
											{
												OFFSET -8.425102 0.000000 0.000000
												CHANNELS 3 Xrotation Yrotation Zrotation
												JOINT RightHandPinky3
												{
													OFFSET -8.147003 0.000000 0.000000
													CHANNELS 3 Xrotation Yrotation Zrotation
													End Site
													{
														OFFSET 0.000000 0.000000 0.000000
													}
												}
											}
										}
									}
								}
							}
						}
					}
				}
			}
		}
	}
	JOINT LeftUpLeg
	{
		OFFSET 11.394100 -6.187798 -0.413800
		CHANNELS 3 Xrotation Yrotation Zrotation
		JOINT LeftLeg
		{
			OFFSET 0.430247 -32.302673 3.732800
			CHANNELS 3 Xrotation Yrotation Zrotation
			JOINT LeftFoot
			{
				OFFSET -0.430247 -48.264931 -6.423300
				CHANNELS 3 Xrotation Yrotation Zrotation
				JOINT LeftToeBase
				{
					OFFSET 4.230900 -16.068199 23.438400
					CHANNELS 3 Xrotation Yrotation Zrotation
					JOINT LeftToe_End
					{
						OFFSET 4.510700 0.695400 19.974600
						CHANNELS 3 Xrotation Yrotation Zrotation
						End Site
						{
							OFFSET 0.000000 0.000000 0.000000
						}
					}
				}
			}
		}
	}
	JOINT RightUpLeg
	{
		OFFSET -11.333700 -6.187798 -0.413800
		CHANNELS 3 Xrotation Yrotation Zrotation
		JOINT RightLeg
		{
			OFFSET -0.430392 -32.302628 3.733000
			CHANNELS 3 Xrotation Yrotation Zrotation
			JOINT RightFoot
			{
				OFFSET 0.430392 -48.264973 -6.423500
				CHANNELS 3 Xrotation Yrotation Zrotation
				JOINT RightToeBase
				{
					OFFSET -4.230900 -16.068199 23.438400
					CHANNELS 3 Xrotation Yrotation Zrotation
					JOINT RightToe_End
					{
						OFFSET -4.510700 0.695400 19.974600
						CHANNELS 3 Xrotation Yrotation Zrotation
						End Site
						{
							OFFSET 0.000000 0.000000 0.000000
						}
					}
				}
			}
		}
	}
}
MOTION
Frames: 5
Frame Time: 0.016667
-0.579193 92.617027 4.009670 -12.956439 -1.265528 -5.195061 5.923545 -0.630424 2.824705 9.106088 -0.324704 -0.848842 0.000000 0.000000 0.000000 9.111604 -0.022998 -0.851798 15.434441 0.560289 0.855191 -3.243828 0.523976 4.960276 -0.000000 0.000000 0.000000 0.689292 3.725265 -11.385281 0.000000 0.000000 0.000000 59.736896 -63.314665 -9.099210 0.000005 -20.467437 0.000009 -19.310953 9.265474 -7.550689 21.734256 5.841480 -2.497397 -16.162762 18.936377 19.036132 -9.576517 8.451323 10.577069 0.000002 0.000005 0.000002 0.152626 1.444570 -12.061578 0.086631 1.091012 -9.079584 -0.000002 0.000001 -0.000003 0.152218 1.442685 -12.045588 0.086932 1.092925 -9.095567 0.000002 0.000000 -0.000001 0.152624 1.444570 -12.061576 0.086629 1.091013 -9.079586 -0.000001 0.000000 0.000001 0.985192 5.412796 -11.600972 0.078383 -2.964047 -9.583908 -0.000001 -0.000001 0.000003 1.381295 0.020057 11.778360 0.000000 0.000000 0.000000 9.839207 40.445344 56.843252 0.000002 26.830947 -0.000017 35.425705 -10.440531 11.800204 -0.389740 -6.638713 -15.665594 8.907254 -22.771349 0.157751 0.754306 -6.942797 -2.431191 0.000001 0.000001 0.000001 0.174548 -1.551241 12.839272 0.140311 -1.392661 11.506926 -0.000000 0.000001 -0.000000 0.174554 -1.551248 12.839277 0.140301 -1.392646 11.506934 0.000002 -0.000001 0.000000 0.174550 -1.551239 12.839272 0.140310 -1.392662 11.506931 -0.000001 0.000001 -0.000001 0.174549 -1.551241 12.839273 0.140309 -1.392661 11.506929 0.000000 0.000000 0.000002 -36.174516 19.443441 11.693766 42.376789 -8.972966 10.073225 3.467549 -8.177084 -0.473951 -1.018569 0.000002 0.000001 -0.000000 0.000000 -0.000000 -27.593411 -36.523234 -3.258948 39.092475 9.491185 -10.276179 0.854566 7.571395 -5.980085 -0.000018 -0.000002 -0.000001 0.000000 -0.000002 0.000000 
-0.582998 92.622383 4.015682 -12.941048 -1.224389 -5.194449 5.919617 -0.630587 2.828461 9.101769 -0.326364 -0.858133 0.000000 0.000000 0.000000 9.107326 -0.025737 -0.860711 15.423286 0.554960 0.870814 -3.284136 0.522454 4.912770 -0.000000 -0.000000 0.000000 0.689440 3.728123 -11.389579 0.000000 0.000000 0.000000 59.635515 -63.287112 -9.181460 -0.000000 -20.479448 -0.000002 -19.271222 9.284309 -7.567687 21.734256 5.841479 -2.497396 -16.162758 18.936377 19.036132 -9.576519 8.451321 10.577064 -0.000000 0.000003 0.000000 0.152625 1.444570 -12.061577 0.086628 1.091012 -9.079585 0.000001 -0.000000 0.000000 0.152217 1.442685 -12.045587 0.086932 1.092926 -9.095566 -0.000001 -0.000000 0.000001 0.152624 1.444569 -12.061575 0.086628 1.091013 -9.079583 0.000001 -0.000000 -0.000000 0.985194 5.412794 -11.600973 0.078382 -2.964046 -9.583911 0.000002 0.000001 0.000002 1.380292 0.014380 11.778444 0.000000 0.000000 0.000000 9.844055 40.462526 56.845335 0.000012 26.845927 -0.000017 35.401157 -10.448960 11.800094 -0.389738 -6.638714 -15.665594 8.907253 -22.771350 0.157750 0.754305 -6.942794 -2.431194 -0.000001 0.000003 -0.000001 0.174551 -1.551241 12.839273 0.140311 -1.392663 11.506928 0.000002 0.000000 0.000001 0.174556 -1.551248 12.839279 0.140307 -1.392647 11.506935 -0.000001 -0.000001 -0.000001 0.174552 -1.551240 12.839274 0.140311 -1.392664 11.506929 0.000002 0.000000 0.000000 0.174551 -1.551242 12.839275 0.140309 -1.392663 11.506929 -0.000001 -0.000000 0.000002 -36.175475 19.427788 11.676372 42.361964 -8.975467 10.072660 3.475042 -8.184414 -0.466317 -1.025288 -0.000003 -0.000006 0.000000 0.000000 -0.000000 -27.594721 -36.554271 -3.269856 39.080242 9.491938 -10.275672 0.846725 7.561875 -5.976173 -0.000018 -0.000000 -0.000001 0.000000 -0.000000 0.000000 
-0.586793 92.627090 4.021736 -12.927290 -1.187265 -5.194627 5.916412 -0.631055 2.831777 9.098280 -0.328488 -0.866142 0.000000 0.000000 0.000000 9.103877 -0.028798 -0.868352 15.411974 0.550057 0.886043 -3.321174 0.521828 4.868124 0.000002 0.000000 0.000000 0.689444 3.729464 -11.390502 0.000000 0.000000 0.000000 59.511363 -63.261950 -9.286503 0.000017 -20.488097 0.000040 -19.229269 9.299536 -7.586322 21.734253 5.841480 -2.497397 -16.162763 18.936377 19.036130 -9.576519 8.451321 10.577064 0.000003 0.000003 -0.000000 0.152621 1.444570 -12.061578 0.086631 1.091013 -9.079586 -0.000002 -0.000000 -0.000001 0.152214 1.442685 -12.045589 0.086932 1.092926 -9.095567 0.000003 -0.000000 0.000000 0.152619 1.444569 -12.061577 0.086633 1.091014 -9.079583 -0.000002 -0.000000 0.000001 0.985189 5.412795 -11.600975 0.078383 -2.964047 -9.583913 -0.000001 -0.000001 0.000003 1.379340 0.009006 11.778233 0.000000 0.000000 0.000000 9.848076 40.481175 56.846684 -0.000002 26.857866 -0.000017 35.377822 -10.457194 11.798765 -0.389740 -6.638714 -15.665597 8.907255 -22.771349 0.157752 0.754305 -6.942798 -2.431192 -0.000000 0.000003 0.000001 0.174550 -1.551241 12.839274 0.140312 -1.392663 11.506930 -0.000001 -0.000000 0.000001 0.174554 -1.551248 12.839278 0.140306 -1.392647 11.506932 -0.000000 0.000000 -0.000003 0.174550 -1.551240 12.839274 0.140313 -1.392662 11.506931 0.000002 0.000000 -0.000000 0.174550 -1.551242 12.839275 0.140310 -1.392663 11.506928 -0.000002 -0.000000 0.000002 -36.176671 19.413139 11.661758 42.349574 -8.977308 10.072169 3.480890 -8.191570 -0.458692 -1.031765 0.000001 0.000001 -0.000000 0.000000 -0.000000 -27.596377 -36.589590 -3.282536 39.069488 9.492763 -10.275160 0.838974 7.558666 -5.974814 -0.000018 -0.000002 -0.000001 -0.000000 -0.000002 -0.000000 
-0.590856 92.631752 4.028030 -12.914225 -1.151606 -5.195137 5.913507 -0.631789 2.835108 9.095247 -0.331064 -0.873291 0.000000 0.000000 0.000000 9.100892 -0.032251 -0.875140 15.400782 0.545106 0.901279 -3.355568 0.520872 4.823727 0.000001 0.000000 0.000000 0.689395 3.730280 -11.390354 0.000000 0.000000 0.000000 59.372205 -63.239151 -9.406499 -0.000002 -20.492442 0.000020 -19.183918 9.314093 -7.606362 21.734256 5.841479 -2.497396 -16.162760 18.936377 19.036132 -9.576515 8.451324 10.577066 0.000002 0.000001 -0.000001 0.152624 1.444570 -12.061577 0.086628 1.091013 -9.079582 -0.000004 0.000000 -0.000000 0.152218 1.442685 -12.045587 0.086935 1.092926 -9.095566 0.000000 0.000000 0.000002 0.152624 1.444570 -12.061575 0.086628 1.091013 -9.079582 -0.000002 -0.000000 0.000002 0.985192 5.412795 -11.600973 0.078387 -2.964047 -9.583911 -0.000001 -0.000001 0.000002 1.378495 0.004378 11.777018 0.000000 0.000000 0.000000 9.850226 40.499545 56.848996 0.000005 26.868047 -0.000015 35.355863 -10.464774 11.797785 -0.389739 -6.638713 -15.665596 8.907258 -22.771349 0.157752 0.754309 -6.942803 -2.431196 0.000001 0.000001 -0.000002 0.174551 -1.551241 12.839273 0.140313 -1.392662 11.506929 -0.000001 -0.000000 0.000000 0.174555 -1.551249 12.839279 0.140308 -1.392648 11.506934 0.000002 -0.000001 0.000001 0.174552 -1.551240 12.839274 0.140311 -1.392663 11.506931 -0.000001 0.000000 -0.000001 0.174551 -1.551242 12.839275 0.140310 -1.392662 11.506928 -0.000001 -0.000000 0.000003 -36.177709 19.399245 11.648640 42.337716 -8.979110 10.071628 3.486210 -8.198892 -0.451032 -1.038245 -0.000001 -0.000003 -0.000000 0.000000 -0.000000 -27.596601 -36.623669 -3.293650 39.058819 9.493545 -10.274640 0.831078 7.554853 -5.973665 -0.000018 0.000000 -0.000001 0.000000 0.000000 0.000000 
-0.595104 92.636223 4.034510 -12.901999 -1.117556 -5.195983 5.910977 -0.632813 2.838434 9.092752 -0.334138 -0.879476 0.000000 0.000000 0.000000 9.098459 -0.036118 -0.880976 15.389693 0.540275 0.916377 -3.387414 0.520193 4.780246 0.000001 -0.000000 0.000000 0.689263 3.730459 -11.388658 0.000000 0.000000 0.000000 59.216306 -63.219370 -9.543466 0.000016 -20.491770 0.000005 -19.135106 9.327731 -7.627776 21.734254 5.841480 -2.497397 -16.162760 18.936377 19.036132 -9.576513 8.451323 10.577066 -0.000001 0.000001 -0.000000 0.152627 1.444570 -12.061577 0.086627 1.091012 -9.079581 -0.000001 0.000000 -0.000000 0.152220 1.442685 -12.045590 0.086934 1.092926 -9.095566 -0.000001 0.000000 0.000002 0.152625 1.444570 -12.061576 0.086631 1.091012 -9.079581 -0.000003 -0.000000 0.000001 0.985193 5.412795 -11.600973 0.078384 -2.964047 -9.583913 0.000001 0.000001 0.000001 1.377774 0.000540 11.774923 0.000000 0.000000 0.000000 9.850695 40.518123 56.852101 0.000004 26.876188 0.000021 35.335178 -10.471734 11.796566 -0.389739 -6.638714 -15.665596 8.907257 -22.771345 0.157753 0.754307 -6.942801 -2.431192 0.000001 -0.000005 0.000001 0.174550 -1.551241 12.839274 0.140312 -1.392663 11.506930 0.000002 -0.000000 -0.000000 0.174556 -1.551248 12.839278 0.140303 -1.392646 11.506931 0.000000 0.000000 -0.000003 0.174550 -1.551240 12.839274 0.140313 -1.392662 11.506929 -0.000000 0.000000 -0.000001 0.174550 -1.551242 12.839273 0.140311 -1.392662 11.506931 0.000001 -0.000000 0.000002 -36.178419 19.386114 11.637086 42.326484 -8.980825 10.071072 3.490772 -8.206251 -0.444062 -1.044757 -0.000007 -0.000000 0.000000 0.000000 0.000000 -27.596117 -36.657038 -3.303849 39.048922 9.494221 -10.274207 0.822923 7.551179 -5.972925 -0.000018 -0.000000 -0.000001 0.000000 -0.000000 -0.000000 
